<svg width="24" height="25" viewBox="0 0 24 25" fill="none" xmlns="http://www.w3.org/2000/svg">
<path d="M6.85714 21.9286C7.33053 21.9286 7.71429 21.5448 7.71429 21.0714C7.71429 20.5981 7.33053 20.2143 6.85714 20.2143C6.38376 20.2143 6 20.5981 6 21.0714C6 21.5448 6.38376 21.9286 6.85714 21.9286Z" fill="#323842"/>
<path d="M18.8571 21.9286C19.3305 21.9286 19.7143 21.5448 19.7143 21.0714C19.7143 20.5981 19.3305 20.2143 18.8571 20.2143C18.3838 20.2143 18 20.5981 18 21.0714C18 21.5448 18.3838 21.9286 18.8571 21.9286Z" fill="#323842"/>
<path d="M6.85714 21.9286C7.33053 21.9286 7.71429 21.5448 7.71429 21.0714C7.71429 20.5981 7.33053 20.2143 6.85714 20.2143C6.38376 20.2143 6 20.5981 6 21.0714C6 21.5448 6.38376 21.9286 6.85714 21.9286Z" stroke="#323842" stroke-width="2.05714" stroke-miterlimit="10" stroke-linecap="square"/>
<path d="M18.8571 21.9286C19.3305 21.9286 19.7143 21.5448 19.7143 21.0714C19.7143 20.5981 19.3305 20.2143 18.8571 20.2143C18.3838 20.2143 18 20.5981 18 21.0714C18 21.5448 18.3838 21.9286 18.8571 21.9286Z" stroke="#323842" stroke-width="2.05714" stroke-miterlimit="10" stroke-linecap="square"/>
<path d="M5.82855 8.21427L20.5714 8.21427L19.1331 15.4074C18.9728 16.2088 18.2691 16.7857 17.4523 16.7857L8.35798 16.7857C7.49913 16.7857 6.77227 16.1497 6.65913 15.2977L5.14284 3.92856L2.57141 3.92856" stroke="#323842" stroke-width="2.05714" stroke-miterlimit="10" stroke-linecap="square"/>
</svg>
